/* XPM */
static char *bitcoin32[] = {
/* columns rows colors chars-per-pixel */
"32 32 88 1 ",
"  c #EBB40F",
". c #ECB60E",
"X c #EFBC0B",
"o c #EDB80D",
"O c #EEBA0C",
"+ c #F0BE0A",
"@ c #E5A615",
"# c #E7AB13",
"$ c #E6A914",
"% c #E8AE12",
"& c #E9B011",
"* c #EAB210",
"= c #EBB511",
"- c #EDBA13",
"; c #EEBC1A",
": c #F3C507",
"> c #F4C706",
", c #F7CD03",
"< c #F7CE03",
"1 c #F5C805",
"2 c #F5CA05",
"3 c #F6CB04",
"4 c #F8CF02",
"5 c #F1C009",
"6 c #F2C208",
"7 c #F2C20A",
"8 c #F2C408",
"9 c #F4C708",
"0 c #F7CF09",
"q c #F9D101",
"w c #F9D201",
"e c #F9D301",
"r c #FAD300",
"t c #F8D002",
"y c #FAD400",
"u c #F8D004",
"i c #F3C715",
"p c #F4C814",
"a c #F6CE1F",
"s c #F7D111",
"d c #F2C723",
"f c #F6CF24",
"g c #F1C52B",
"h c #F3C828",
"j c #F7D224",
"k c #F9D72D",
"l c #EFC237",
"z c #EFC54C",
"x c #F4CF45",
"c c #F7D542",
"v c #FBDD41",
"b c #FBDF4D",
"n c #F0C858",
"m c #F1CC5B",
"M c #FADF52",
"N c #F7DB67",
"B c #F8DB66",
"V c #F4D36D",
"C c #FBE266",
"Z c #FCE678",
"A c #F4D680",
"S c #F8DF84",
"D c #F7DF8D",
"F c #FAE382",
"G c #F9E28B",
"H c #FBE788",
"J c #FAE58A",
"K c #F8E394",
"L c #FBE892",
"P c #FAEAAE",
"I c #FCEEAD",
"U c #FAECB9",
"Y c #FCF0B7",
"T c #FDF4CF",
"R c #FBF1D3",
"E c #FDF3D0",
"W c #FEF6D0",
"Q c #FEF9DE",
"! c #FDF6E0",
"~ c #FEFAE9",
"^ c #FEFBE9",
"/ c #FDF9EA",
"( c #FFFDF8",
") c #FFFEF8",
"_ c #FFFEFD",
"` c #FFFFFD",
"' c white",
"] c None",
/* pixels */
"]]]]]]]]]]]]]]]]]]]]]]]]]]]]]]]]",
"]]]]]]]]]]]]yyyyyyyy]]]]]]]]]]]]",
"]]]]]]]]]yyyyyyyyyyyyyy]]]]]]]]]",
"]]]]]]]]rrrrrrrrrrrrrrrr]]]]]]]]",
"]]]]]]eeeeeeeeeeeeeeeeeeee]]]]]]",
"]]]]]wwwwwwwwwwwwbwwwwwwwww]]]]]",
"]]]]qqqqqqqqqqqqvZqqqqqqqqqq]]]]",
"]]]]tttttttttttuWMtttttttttt]]]]",
"]]]444444444444C'k44444444444]]]",
"]]<<<<<<<<<<<<s^`0<<<<<<<<<<<<]]",
"]],,,,,,,,,,,,H'Q,,,,,,,,,,,,,]]",
"]]33333333333j)'Y3333333333333]]",
"]222222222222I''L22222222222222]",
"]11111111111c'''Fffffa111111111]",
"]>>>>>>>>>>9T''''''''J>>>>>>>>>]",
"]::::::::::B''''''''~p:::::::::]",
"]888888888i~''''''''N8888888888]",
"]666666666G''''''''E76666666666]",
"]555555555dhhhhS'''x55555555555]",
"]++++++++++++++K''P++++++++++++]",
"]]XXXXXXXXXXXXXU'(gXXXXXXXXXXX]]",
"]]OOOOOOOOOOOOO!'DOOOOOOOOOOOO]]",
"]]oooooooooooo-_/;oooooooooooo]]",
"]]]...........l'V............]]]",
"]]]]          mR=           ]]]]",
"]]]]**********Az************]]]]",
"]]]]]&&&&&&&&&n&&&&&&&&&&&&]]]]]",
"]]]]]]%%%%%%%%%%%%%%%%%%%%]]]]]]",
"]]]]]]]]################]]]]]]]]",
"]]]]]]]]]$$$$$$$$$$$$$$]]]]]]]]]",
"]]]]]]]]]]]]@@@@@@@@]]]]]]]]]]]]",
"]]]]]]]]]]]]]]]]]]]]]]]]]]]]]]]]"
};
