/* XPM */
static char *bitcoin64[] = {
/* columns rows colors chars-per-pixel */
"64 64 161 2 ",
"   c #EBB30F",
".  c #EBB40F",
"X  c #EDB70D",
"o  c #ECB50E",
"O  c #ECB60E",
"+  c #EFBC0B",
"@  c #EFBD0B",
"#  c #EDB80D",
"$  c #EEB90C",
"%  c #EEBA0C",
"&  c #EEBB0C",
"*  c #F1BF09",
"=  c #F0BE0A",
"-  c #F0BF0A",
";  c #E5A515",
":  c #E5A615",
">  c #E6A714",
",  c #E7AA13",
"<  c #E7AB13",
"1  c #E6A914",
"2  c #E9AE11",
"3  c #E9AF11",
"4  c #E8AC12",
"5  c #E8AD12",
"6  c #EAB010",
"7  c #EAB210",
"8  c #EAB312",
"9  c #EBB217",
"0  c #EDBA14",
"q  c #EEBD1D",
"w  c #EDBA26",
"e  c #EDBA2D",
"r  c #EDBC3B",
"t  c #F3C507",
"y  c #F4C606",
"u  c #F4C706",
"i  c #F7CC03",
"p  c #F7CD03",
"a  c #F7CE03",
"s  c #F5C805",
"d  c #F5C905",
"f  c #F5CA05",
"g  c #F6CA04",
"h  c #F6CB04",
"j  c #F4C806",
"k  c #F6CC04",
"l  c #F8CF02",
"z  c #F1C009",
"x  c #F1C109",
"c  c #F2C208",
"v  c #F2C308",
"b  c #F1C00B",
"n  c #F2C408",
"m  c #F3C70E",
"M  c #F2C60F",
"N  c #F4C808",
"B  c #F5CA0B",
"V  c #F7CF0A",
"C  c #F5CA0C",
"Z  c #F9D101",
"A  c #F9D201",
"S  c #F9D301",
"D  c #FAD300",
"F  c #F8D002",
"G  c #F9D103",
"H  c #FAD400",
"J  c #F9D209",
"K  c #F0C110",
"L  c #F0C111",
"P  c #F2C61F",
"I  c #F3C81E",
"U  c #F5CB1C",
"Y  c #F5CD1C",
"T  c #F8D114",
"R  c #F8D11A",
"E  c #F9D41A",
"W  c #F0C022",
"Q  c #FAD720",
"!  c #F7D32F",
"~  c #FADA2E",
"^  c #F3C933",
"/  c #F4CD36",
"(  c #F0C43D",
")  c #F2C939",
"_  c #F6D135",
"`  c #F8D533",
"'  c #F9D834",
"]  c #F9D93A",
"[  c #F1C742",
"{  c #FBDE46",
"}  c #EFC551",
"|  c #F3CF5E",
" . c #F6D757",
".. c #F7D857",
"X. c #F9DB54",
"o. c #F8DB55",
"O. c #FADE57",
"+. c #F4D259",
"@. c #F5D359",
"#. c #FBE156",
"$. c #F0CA60",
"%. c #F6D764",
"&. c #F6D866",
"*. c #F8DC62",
"=. c #F8DD64",
"-. c #F3D168",
";. c #F6DA7D",
":. c #F6DB7D",
">. c #F8DF7B",
",. c #F8DD7C",
"<. c #FBE160",
"1. c #FAE379",
"2. c #F9E07B",
"3. c #FAE27A",
"4. c #FBE479",
"5. c #FCE77A",
"6. c #F4D781",
"7. c #F6DB8B",
"8. c #FCE885",
"9. c #FAE79F",
"0. c #FBE99D",
"q. c #FBEB9D",
"w. c #FCED9F",
"e. c #F7E2A4",
"r. c #F8E4A0",
"t. c #F9E5A3",
"y. c #FCECA0",
"u. c #FDF0AE",
"i. c #F9E7B2",
"p. c #FBEFC3",
"a. c #FAEEC5",
"s. c #FBEFC7",
"d. c #FDF2C1",
"f. c #FCF0C2",
"g. c #FCF1C2",
"h. c #FDF4C2",
"j. c #FDF3C5",
"k. c #FEF7D2",
"l. c #FBF2D5",
"z. c #FDF5D7",
"x. c #FDF6D7",
"c. c #FDF7DF",
"v. c #FEF9DE",
"b. c #FEF8DF",
"n. c #FEF9DF",
"m. c #FCF5E1",
"M. c #FDF6E0",
"N. c #FEFBEC",
"B. c #FEFAED",
"V. c #FEFBF3",
"C. c #FEFCF2",
"Z. c #FFFCF2",
"A. c #FFFDF3",
"S. c #FEFBF4",
"D. c #FFFEF7",
"F. c #FEFDF8",
"G. c #FFFEFD",
"H. c #FFFFFD",
"J. c #FFFFFE",
"K. c white",
"L. c None",
/* pixels */
"L.L.L.L.L.L.L.L.L.L.L.L.L.L.L.L.L.L.L.L.L.L.L.L.L.L.L.L.L.L.L.L.L.L.L.L.L.L.L.L.L.L.L.L.L.L.L.L.L.L.L.L.L.L.L.L.L.L.L.L.L.L.L.L.",
"L.L.L.L.L.L.L.L.L.L.L.L.L.L.L.L.L.L.L.L.L.L.L.L.L.L.H H H H H H H H H H H H L.L.L.L.L.L.L.L.L.L.L.L.L.L.L.L.L.L.L.L.L.L.L.L.L.L.",
"L.L.L.L.L.L.L.L.L.L.L.L.L.L.L.L.L.L.L.L.L.L.H H H H H H H H H H H H H H H H H H H H L.L.L.L.L.L.L.L.L.L.L.L.L.L.L.L.L.L.L.L.L.L.",
"L.L.L.L.L.L.L.L.L.L.L.L.L.L.L.L.L.L.L.L.H H H H H H H H H H H H H H H H H H H H H H H H L.L.L.L.L.L.L.L.L.L.L.L.L.L.L.L.L.L.L.L.",
"L.L.L.L.L.L.L.L.L.L.L.L.L.L.L.L.L.L.H H H H H H H H H H H H H H H H H H H H H H H H H H H H L.L.L.L.L.L.L.L.L.L.L.L.L.L.L.L.L.L.",
"L.L.L.L.L.L.L.L.L.L.L.L.L.L.L.L.D D D D D D D D D D D D D D D D D D D D D D D D D D D D D D D D L.L.L.L.L.L.L.L.L.L.L.L.L.L.L.L.",
"L.L.L.L.L.L.L.L.L.L.L.L.L.L.D D D D D D D D D D D D D D D D D D D D D D D D D D D D D D D D D D D D L.L.L.L.L.L.L.L.L.L.L.L.L.L.",
"L.L.L.L.L.L.L.L.L.L.L.L.L.S S S S S S S S S S S S S S S S S S S S S S S S S S S S S S S S S S S S S S L.L.L.L.L.L.L.L.L.L.L.L.L.",
"L.L.L.L.L.L.L.L.L.L.L.L.A A A A A A A A A A A A A A A A A A A A A A A A A A A A A A A A A A A A A A A A L.L.L.L.L.L.L.L.L.L.L.L.",
"L.L.L.L.L.L.L.L.L.L.L.A A A A A A A A A A A A A A A A A A A A A A A A ~ A A A A A A A A A A A A A A A A A L.L.L.L.L.L.L.L.L.L.L.",
"L.L.L.L.L.L.L.L.L.L.A A A A A A A A A A A A A A A A A A A A A A A A #.{ A A A A A A A A A A A A A A A A A A L.L.L.L.L.L.L.L.L.L.",
"L.L.L.L.L.L.L.L.L.Z Z Z Z Z Z Z Z Z Z Z Z Z Z Z Z Z Z Z Z Z Z Z Z J n.Q Z Z Z Z Z Z Z Z Z Z Z Z Z Z Z Z Z Z Z L.L.L.L.L.L.L.L.L.",
"L.L.L.L.L.L.L.L.Z Z Z Z Z Z Z Z Z Z Z Z Z Z Z Z Z Z Z Z Z Z Z Z Z 5.D.G Z Z Z Z Z Z Z Z Z Z Z Z Z Z Z Z Z Z Z Z L.L.L.L.L.L.L.L.",
"L.L.L.L.L.L.L.F F F F F F F F F F F F F F F F F F F F F F F F F E A.k.F F F F F F F F F F F F F F F F F F F F F F L.L.L.L.L.L.L.",
"L.L.L.L.L.L.F F F F F F F F F F F F F F F F F F F F F F F F F F w.K.u.F F F F F F F F F F F F F F F F F F F F F F F L.L.L.L.L.L.",
"L.L.L.L.L.L.l l l l l l l l l l l l l l l l l l l l l l l l l ' J.K.8.l l l l l l l l l l l l l l l l l l l l l l l L.L.L.L.L.L.",
"L.L.L.L.L.l l l l l l l l l l l l l l l l l l l l l l l l l l h.K.K.<.l l l l l l l l l l l l l l l l l l l l l l l l L.L.L.L.L.",
"L.L.L.L.L.a a a a a a a a a a a a a a a a a a a a a a a a a O.K.K.K.] a a a a a a a a a a a a a a a a a a a a a a a a L.L.L.L.L.",
"L.L.L.L.a a a a a a a a a a a a a a a a a a a a a a a a a V v.K.K.K.T a a a a a a a a a a a a a a a a a a a a a a a a a L.L.L.L.",
"L.L.L.L.p p p p p p p p p p p p p p p p p p p p p p p p p 4.K.K.K.N.p p p p p p p p p p p p p p p p p p p p p p p p p p L.L.L.L.",
"L.L.L.i i i i i i i i i i i i i i i i i i i i i i i i i R Z.K.K.K.j.i i i i i i i i i i i i i i i i i i i i i i i i i i i L.L.L.",
"L.L.L.k k k k k k k k k k k k k k k k k k k k k k k k k q.K.K.K.K.y.k k k k k k k k k k k k k k k k k k k k k k k k k k k L.L.L.",
"L.L.h h h h h h h h h h h h h h h h h h h h h h h h h ` J.K.K.K.K.1.h h h h h h h h h h h h h h h h h h h h h h h h h h h h L.L.",
"L.L.g g g g g g g g g g g g g g g g g g g g g g g g g d.K.K.K.K.K.X.g g g g g g g g g g g g g g g g g g g g g g g g g g g g L.L.",
"L.L.f f f f f f f f f f f f f f f f f f f f f f f f o.K.K.K.K.K.K.! f f f f f f f f f f f f f f f f f f f f f f f f f f f f L.L.",
"L.L.d d d d d d d d d d d d d d d d d d d d d d d C b.K.K.K.K.K.H.B d d d d d d d d d d d d d d d d d d d d d d d d d d d d L.L.",
"L.s s s s s s s s s s s s s s s s s s s s s s s s 3.K.K.K.K.K.K.b.s s s s s s s s s s s s s s s s s s s s s s s s s s s s s s L.",
"L.j j j j j j j j j j j j j j j j j j j j j j j Y C.K.K.K.K.K.K.x.=.=.=.=.=.=.=.=.=.=.*.N j j j j j j j j j j j j j j j j j j L.",
"L.u u u u u u u u u u u u u u u u u u u u u u u 0.K.K.K.K.K.K.K.K.K.K.K.K.K.K.K.K.K.K.0.u u u u u u u u u u u u u u u u u u u L.",
"L.y y y y y y y y y y y y y y y y y y y y y y _ J.K.K.K.K.K.K.K.K.K.K.K.K.K.K.K.K.K.C.U y y y y y y y y y y y y y y y y y y y L.",
"L.t t t t t t t t t t t t t t t t t t t t t t g.K.K.K.K.K.K.K.K.K.K.K.K.K.K.K.K.K.K.2.t t t t t t t t t t t t t t t t t t t t L.",
"L.t t t t t t t t t t t t t t t t t t t t t ..K.K.K.K.K.K.K.K.K.K.K.K.K.K.K.K.K.K.c.m t t t t t t t t t t t t t t t t t t t t L.",
"L.n n n n n n n n n n n n n n n n n n n n M c.K.K.K.K.K.K.K.K.K.K.K.K.K.K.K.K.K.K. .n n n n n n n n n n n n n n n n n n n n n L.",
"L.v v v v v v v v v v v v v v v v v v v v >.K.K.K.K.K.K.K.K.K.K.K.K.K.K.K.K.K.K.f.v v v v v v v v v v v v v v v v v v v v v v L.",
"L.c c c c c c c c c c c c c c c c c c c I C.K.K.K.K.K.K.K.K.K.K.K.K.K.K.K.K.K.J./ c c c c c c c c c c c c c c c c c c c c c c L.",
"L.x x x x x x x x x x x x x x x x x x x 9.K.K.K.K.K.K.K.K.K.K.K.K.K.K.K.K.K.K.9.x x x x x x x x x x x x x x x x x x x x x x x L.",
"L.z z z z z z z z z z z z z z z z z z b %.&.&.&.&.&.&.&.&.&.&.z.K.K.K.K.K.K.C.P z z z z z z z z z z z z z z z z z z z z z z z L.",
"L.* * * * * * * * * * * * * * * * * * * * * * * * * * * * * * c.K.K.K.K.K.K.,.* * * * * * * * * * * * * * * * * * * * * * * * L.",
"L.L.- - - - - - - - - - - - - - - - - - - - - - - - - - - - K G.K.K.K.K.K.c.L - - - - - - - - - - - - - - - - - - - - - - - L.L.",
"L.L.= = = = = = = = = = = = = = = = = = = = = = = = = = = = ^ K.K.K.K.K.K.@.= = = = = = = = = = = = = = = = = = = = = = = = L.L.",
"L.L.@ @ @ @ @ @ @ @ @ @ @ @ @ @ @ @ @ @ @ @ @ @ @ @ @ @ @ @ +.K.K.K.K.K.p.@ @ @ @ @ @ @ @ @ @ @ @ @ @ @ @ @ @ @ @ @ @ @ @ @ L.L.",
"L.L.+ + + + + + + + + + + + + + + + + + + + + + + + + + + + :.K.K.K.K.J.) + + + + + + + + + + + + + + + + + + + + + + + + + L.L.",
"L.L.L.& & & & & & & & & & & & & & & & & & & & & & & & & & & t.K.K.K.K.r.& & & & & & & & & & & & & & & & & & & & & & & & & L.L.L.",
"L.L.L.% % % % % % % % % % % % % % % % % % % % % % % % % % % s.K.K.K.V.W % % % % % % % % % % % % % % % % % % % % % % % % % L.L.L.",
"L.L.L.L.$ $ $ $ $ $ $ $ $ $ $ $ $ $ $ $ $ $ $ $ $ $ $ $ $ $ B.K.K.K.;.$ $ $ $ $ $ $ $ $ $ $ $ $ $ $ $ $ $ $ $ $ $ $ $ $ L.L.L.L.",
"L.L.L.L.# # # # # # # # # # # # # # # # # # # # # # # # # q K.K.K.M.0 # # # # # # # # # # # # # # # # # # # # # # # # # L.L.L.L.",
"L.L.L.L.L.X X X X X X X X X X X X X X X X X X X X X X X X [ K.K.K.| X X X X X X X X X X X X X X X X X X X X X X X X X L.L.L.L.L.",
"L.L.L.L.L.O O O O O O O O O O O O O O O O O O O O O O O O -.K.K.a.O O O O O O O O O O O O O O O O O O O O O O O O O O L.L.L.L.L.",
"L.L.L.L.L.L.o o o o o o o o o o o o o o o o o o o o o o o 7.K.J.( o o o o o o o o o o o o o o o o o o o o o o o o o L.L.L.L.L.L.",
"L.L.L.L.L.L.. . . . . . . . . . . . . . . . . . . . . . . i.K.e.. . . . . . . . . . . . . . . . . . . . . . . . . . L.L.L.L.L.L.",
"L.L.L.L.L.L.L.                                            l.S.w                                                   L.L.L.L.L.L.L.",
"L.L.L.L.L.L.L.L.7 7 7 7 7 7 7 7 7 7 7 7 7 7 7 7 7 7 7 7 8 F.6.7 7 7 7 7 7 7 7 7 7 7 7 7 7 7 7 7 7 7 7 7 7 7 7 7 L.L.L.L.L.L.L.L.",
"L.L.L.L.L.L.L.L.L.6 6 6 6 6 6 6 6 6 6 6 6 6 6 6 6 6 6 6 e m.9 6 6 6 6 6 6 6 6 6 6 6 6 6 6 6 6 6 6 6 6 6 6 6 6 L.L.L.L.L.L.L.L.L.",
"L.L.L.L.L.L.L.L.L.L.3 3 3 3 3 3 3 3 3 3 3 3 3 3 3 3 3 3 } $.3 3 3 3 3 3 3 3 3 3 3 3 3 3 3 3 3 3 3 3 3 3 3 3 L.L.L.L.L.L.L.L.L.L.",
"L.L.L.L.L.L.L.L.L.L.L.2 2 2 2 2 2 2 2 2 2 2 2 2 2 2 2 2 r 2 2 2 2 2 2 2 2 2 2 2 2 2 2 2 2 2 2 2 2 2 2 2 2 L.L.L.L.L.L.L.L.L.L.L.",
"L.L.L.L.L.L.L.L.L.L.L.L.5 5 5 5 5 5 5 5 5 5 5 5 5 5 5 5 5 5 5 5 5 5 5 5 5 5 5 5 5 5 5 5 5 5 5 5 5 5 5 5 L.L.L.L.L.L.L.L.L.L.L.L.",
"L.L.L.L.L.L.L.L.L.L.L.L.L.4 4 4 4 4 4 4 4 4 4 4 4 4 4 4 4 4 4 4 4 4 4 4 4 4 4 4 4 4 4 4 4 4 4 4 4 4 4 L.L.L.L.L.L.L.L.L.L.L.L.L.",
"L.L.L.L.L.L.L.L.L.L.L.L.L.L.< < < < < < < < < < < < < < < < < < < < < < < < < < < < < < < < < < < < L.L.L.L.L.L.L.L.L.L.L.L.L.L.",
"L.L.L.L.L.L.L.L.L.L.L.L.L.L.L.L., , , , , , , , , , , , , , , , , , , , , , , , , , , , , , , , L.L.L.L.L.L.L.L.L.L.L.L.L.L.L.L.",
"L.L.L.L.L.L.L.L.L.L.L.L.L.L.L.L.L.L.1 1 1 1 1 1 1 1 1 1 1 1 1 1 1 1 1 1 1 1 1 1 1 1 1 1 1 1 L.L.L.L.L.L.L.L.L.L.L.L.L.L.L.L.L.L.",
"L.L.L.L.L.L.L.L.L.L.L.L.L.L.L.L.L.L.L.L.> > > > > > > > > > > > > > > > > > > > > > > > L.L.L.L.L.L.L.L.L.L.L.L.L.L.L.L.L.L.L.L.",
"L.L.L.L.L.L.L.L.L.L.L.L.L.L.L.L.L.L.L.L.L.L.: : : : : : : : : : : : : : : : : : : : L.L.L.L.L.L.L.L.L.L.L.L.L.L.L.L.L.L.L.L.L.L.",
"L.L.L.L.L.L.L.L.L.L.L.L.L.L.L.L.L.L.L.L.L.L.L.L.L.L.; ; ; ; ; ; ; ; ; ; ; ; L.L.L.L.L.L.L.L.L.L.L.L.L.L.L.L.L.L.L.L.L.L.L.L.L.L.",
"L.L.L.L.L.L.L.L.L.L.L.L.L.L.L.L.L.L.L.L.L.L.L.L.L.L.L.L.L.L.L.L.L.L.L.L.L.L.L.L.L.L.L.L.L.L.L.L.L.L.L.L.L.L.L.L.L.L.L.L.L.L.L.L."
};
