/* XPM */
static char *bitcoin16[] = {
/* columns rows colors chars-per-pixel */
"16 16 40 1 ",
"  c #EBB30F",
". c #EFBC0B",
"X c #EDB80D",
"o c #EFBC0C",
"O c #E6A914",
"+ c #E9AE11",
"@ c #E9B016",
"# c #F4C706",
"$ c #F7CD03",
"% c #F6CA04",
"& c #F7CD04",
"* c #F1C009",
"= c #F2C408",
"- c #F4C90F",
"; c #F9D201",
": c #FAD300",
"> c #F8D002",
", c #FAD400",
"< c #FAD405",
"1 c #F2C611",
"2 c #F9DA38",
"3 c #F1C740",
"4 c #F8D846",
"5 c #F5D14A",
"6 c #F6D65F",
"7 c #F9DC5C",
"8 c #FBE259",
"9 c #F2CD62",
"0 c #F6D870",
"q c #FAE26C",
"w c #F9E381",
"e c #F8E182",
"r c #F7E095",
"t c #FCEA90",
"y c #FDF4C7",
"u c #FBF0C8",
"i c #FEF8E3",
"p c #FEF9E3",
"a c white",
"s c None",
/* pixels */
"ssssssssssssssss",
"sssss,,,,,,sssss",
"ssss::::<:::ssss",
"sss;;;;;8;;;;sss",
"ss>>>>>2t>>>>>ss",
"s$$$$$&yq$$$$$$s",
"s%%%%%7a4%%%%%%s",
"s####-paaaw####s",
"s====eaaai1====s",
"s******5a6*****s",
"s......0uo.....s",
"ssXXXXXr3XXXXXss",
"sss    9     sss",
"ssss+++@++++ssss",
"sssssOOOOOOsssss",
"ssssssssssssssss"
};
